<svg xmlns="http://www.w3.org/2000/svg" version="1.1" viewBox="0 0 512 512" width="100" height="50">
  <path class="st0" d="M510.304,239.426c0,0-15.641,30.016-44.969,27.875c-29.359-2.141-60.641-70.766-119.344-92.219
    c-58.688-21.453-90,12.859-90,12.859s-31.297-34.313-89.969-12.859c-58.688,21.453-89.984,90.078-119.328,92.219
    s-45-27.875-45-27.875s-9.781,25.734,17.625,62.188c27.375,36.453,103.656,51.781,152.578,36.453
    c54.75-17.156,84.094-60.031,84.094-60.031s27.391,45.031,84.125,60.031c49.453,13.094,125.219,0,152.594-36.453
    S510.304,239.426,510.304,239.426z" fill="#000000"/>
</svg>
